<svg width="12" height="11" xmlns="http://www.w3.org/2000/svg">
 <defs>
  <linearGradient y2="0" x2="0.75" y1="0" x1="0" id="svg_6">
   <stop offset="0.984375" stop-color="#ED8A19"/>
   <stop offset="1" stop-color="#AFAFAF"/>
  </linearGradient>
 </defs>
 <g>
  <title>background</title>
  <rect fill="none" id="canvas_background" height="402" width="582" y="-1" x="-1"/>
 </g>
 <g>
  <title>Layer 1</title>
  <path id="svg_1" fill="url(#svg_6)" d="m6.23394,0.34266l1.28239,2.60841c0.08917,0.18142 0.2616,0.30713 0.46106,0.33617l2.86761,0.41831c0.5024,0.07333 0.7028,0.69282 0.3394,1.04827l-2.07498,2.03036c-0.14421,0.14118 -0.21014,0.34474 -0.17599,0.54401l0.48976,2.86701c0.08586,0.5021 -0.43924,0.8849 -0.88844,0.648l-2.56479,-1.35347c-0.17835,-0.09404 -0.39157,-0.09404 -0.56992,0l-2.56479,1.35347c-0.4492,0.2371 -0.9743,-0.1459 -0.88845,-0.648l0.48977,-2.86701c0.03415,-0.19927 -0.03179,-0.40283 -0.17599,-0.54401l-2.07502,-2.03036c-0.36335,-0.35569 -0.16294,-0.97518 0.3394,-1.04827l2.86765,-0.41831c0.19946,-0.02904 0.37189,-0.15475 0.46106,-0.33617l1.28239,-2.60841c0.22437,-0.45688 0.87327,-0.45688 1.09788,0z"/>
 </g>
</svg>